# xmcd CD database file
#
# Track frame offsets:
#	150
#	47648
#	82665
#	96707
#	163809
#	200797
#	240123
#
# Disc length: 3607 seconds
#
# Revision: 0
# Processed by: cddbd v1.5.2PL0 Copyright (c) Steve Scherf et al.
# Submitted via: CDex 1.79
#
DISCID=530e1507
DTITLE=Charles Mingus  - Jazz Manifesto
DYEAR=1900
DGENRE=Jazz
TTITLE0=Pithecanthropus Erectus
TTITLE1=A Foggy Day
TTITLE2=Profile of Jackie
TTITLE3=Love Chant
TTITLE4=What is this Thing called Love?
TTITLE5=Spur of the Moment
TTITLE6=Thrice upon a Theme
EXTD=
EXTT0=
EXTT1=
EXTT2=
EXTT3=
EXTT4=
EXTT5=
EXTT6=
PLAYORDER=
